<svg width="29" height="29" viewBox="0 0 29 29" fill="none" xmlns="http://www.w3.org/2000/svg">
<path fill-rule="evenodd" clip-rule="evenodd" d="M15.7157 1.76587C15.7157 0.937442 15.0441 0.265869 14.2157 0.265869C13.3873 0.265869 12.7157 0.937442 12.7157 1.76587V12.8512H1.63037C0.801944 12.8512 0.130371 13.5228 0.130371 14.3512C0.130371 15.1796 0.801944 15.8512 1.63037 15.8512H12.7157V26.9366C12.7157 27.765 13.3873 28.4366 14.2157 28.4366C15.0441 28.4366 15.7157 27.765 15.7157 26.9366V15.8512H26.8011C27.6295 15.8512 28.3011 15.1796 28.3011 14.3512C28.3011 13.5228 27.6295 12.8512 26.8011 12.8512H15.7157V1.76587Z" fill="white"/>
</svg>
