<svg width="16" height="16" viewBox="0 0 16 16" fill="none" xmlns="http://www.w3.org/2000/svg">
<path d="M1.77246 5.4585H13.7725V15.2085C13.7725 15.4074 13.6934 15.5982 13.5528 15.7388C13.4121 15.8795 13.2214 15.9585 13.0225 15.9585H2.52246C2.32355 15.9585 2.13278 15.8795 1.99213 15.7388C1.85148 15.5982 1.77246 15.4074 1.77246 15.2085V5.4585ZM3.27246 6.9585V14.4585H12.2725V6.9585H3.27246ZM5.52246 8.4585H7.02246V12.9585H5.52246V8.4585ZM8.52246 8.4585H10.0225V12.9585H8.52246V8.4585ZM4.02246 3.2085V1.7085C4.02246 1.50958 4.10148 1.31882 4.24213 1.17817C4.38278 1.03751 4.57355 0.958496 4.77246 0.958496H10.7725C10.9714 0.958496 11.1621 1.03751 11.3028 1.17817C11.4434 1.31882 11.5225 1.50958 11.5225 1.7085V3.2085H15.2725V4.7085H0.272461V3.2085H4.02246ZM5.52246 2.4585V3.2085H10.0225V2.4585H5.52246Z" fill="white" fill-opacity="0.5"/>
</svg>
