<svg width="363" height="276" viewBox="0 0 363 276" fill="none" xmlns="http://www.w3.org/2000/svg">
<path d="M330.192 142.084C327.961 176.725 301.512 209.801 265.687 211.871C224.536 215.038 186.766 192.372 145.779 192.137C124.877 190.337 105.276 198.371 84.9055 200.969C38.9031 202.664 31.8909 148.365 40.4736 113.366C76.6555 -51.6643 332.696 -29.2153 330.192 142.084Z" fill="#C5DAED"/>
<path d="M329.31 275.869H297.816L286.233 220.404L278.204 275.869H245.21L249.747 234.572L252.608 208.593L254.33 192.929L299.089 181.347L319.297 182.461L329.31 275.869Z" fill="#6BB2AB"/>
<path d="M284.277 216.275L268.25 206.827L263.73 204.165C263.439 203.995 263.228 204.47 263.514 204.64L279.541 214.082L284.061 216.75C284.352 216.92 284.563 216.445 284.277 216.275Z" fill="#389688"/>
<path d="M283.313 217.465L271.84 214.533C271.513 214.445 271.437 214.967 271.758 215.049L283.231 217.981C283.552 218.064 283.634 217.548 283.313 217.465Z" fill="#389688"/>
<path d="M321.521 237.557L317.633 203.514L315.426 184.232C315.422 184.198 315.411 184.165 315.395 184.135C315.378 184.105 315.356 184.079 315.33 184.058C315.303 184.037 315.273 184.021 315.24 184.012C315.207 184.002 315.173 183.999 315.14 184.003C315.106 184.007 315.073 184.017 315.043 184.034C315.014 184.05 314.988 184.073 314.966 184.099C314.945 184.126 314.93 184.157 314.92 184.189C314.911 184.222 314.908 184.257 314.912 184.29L318.818 218.509C320.122 229.847 321.42 241.195 322.712 252.552C323.448 258.98 324.182 265.407 324.913 271.834C324.927 271.898 324.964 271.955 325.017 271.993C325.07 272.032 325.135 272.049 325.2 272.041C325.264 272.034 325.324 272.003 325.367 271.954C325.41 271.905 325.434 271.841 325.433 271.776L321.521 237.557Z" fill="#389688"/>
<path d="M362.024 72.1394C361.539 76.655 360.313 81.0533 359.104 85.4281C357.983 89.4511 356.866 93.4721 355.753 97.4912L343.153 97.1804C341.83 96.3256 340.715 95.1833 339.889 93.8377C338.764 91.9207 337.851 89.8853 337.169 87.768C336.487 85.6587 335.527 83.6507 334.314 81.798C333.767 81.1546 333.336 80.4203 333.041 79.6282C332.813 78.8131 333.07 77.7809 333.846 77.4525C334.623 77.1241 335.598 77.7106 336.281 78.3146C338.76 80.4974 340.889 83.051 342.593 85.8855H342.628C342.869 78.6371 343.107 71.3868 343.34 64.1344C343.327 63.725 343.393 63.317 343.533 62.9322C343.601 62.7391 343.722 62.5686 343.88 62.4393C344.039 62.31 344.23 62.227 344.432 62.1992C345.185 62.1523 345.6 63.0554 345.781 63.7943C346.931 68.4728 347.55 73.2673 347.626 78.0859C347.968 73.0308 348.472 67.9854 349.138 62.9498C349.278 61.8942 349.453 60.7741 350.165 59.9824C350.292 59.8233 350.453 59.6948 350.636 59.6065C350.819 59.5182 351.019 59.4723 351.222 59.4722C351.975 59.5485 352.267 60.4926 352.39 61.2316C353.108 66.7983 353.196 72.4288 352.653 78.0155C353.556 73.2536 354.465 68.4917 355.379 63.7298C355.396 63.4743 355.463 63.2247 355.577 62.9952C355.69 62.7658 355.847 62.5611 356.039 62.3927C356.734 61.9529 357.645 62.5862 358.036 63.3076C358.725 64.586 358.62 66.1283 358.485 67.571C357.979 71.6881 357.256 75.7755 356.319 79.8159C357.37 76.9071 358.462 74.016 359.595 71.1424C359.822 70.556 360.179 69.8874 360.763 69.8112C361.022 69.8001 361.277 69.8759 361.488 70.0267C361.7 70.1774 361.855 70.3946 361.93 70.6439C362.077 71.1283 362.109 71.6404 362.024 72.1394Z" fill="#E88846"/>
<path d="M252.608 208.593L249.747 234.578C247.202 233.81 244.65 230.25 243.874 228.191C242.256 224.385 242.706 220.175 242.659 216.122C242.858 213.308 241.83 209.93 243.243 207.402C245.38 205.842 248.352 207.326 250.646 207.865C251.334 208.005 251.995 208.25 252.608 208.593Z" fill="#E88846"/>
<path d="M355.385 96.8168L342.085 96.4591H341.343L338.36 108.428C338.36 108.428 331.12 92.008 325.141 84.7361C319.162 77.4643 299.089 77.693 299.089 77.693L272.109 83.2348C272.109 83.2348 253.536 94.2189 248.106 98.019C242.677 101.819 239.856 102.617 238.7 123.617C237.544 144.618 239.565 209.525 239.565 209.525C239.565 209.525 243.949 213.425 252.41 210.369L254.103 194.934C254.103 194.934 279.454 206.335 296.841 184.455C296.841 184.455 313.873 184.232 319.297 182.484L318.129 151.526L319.297 128.854C319.297 128.854 330.729 153.057 344.333 152.541C357.937 152.024 356.635 120.638 356.921 96.8755L355.385 96.8168ZM257.512 167.495L257.997 139.686L260.403 153.344L257.512 167.495Z" fill="#38A4E1"/>
<path d="M299.089 77.693C299.089 77.693 298.768 80.5196 298.062 83.9034C297.244 87.7797 295.919 92.395 293.975 94.3068L291.639 93.2923L287.348 101.96L279.005 96.1483L276.833 98.0425C276.833 98.0425 270.632 94.8405 267.812 85.8328C267.812 85.8328 268.396 82.3141 272.938 82.1792L273.008 84.6892L284.405 89.9672L293.934 79.9977L293.07 77.3118C295.054 76.6878 297.199 76.8236 299.089 77.693Z" fill="#F4E9DC"/>
<path d="M356.81 78.6254C353.601 77.5855 350.255 77.0378 346.884 77.001C346.551 77.001 346.61 77.5112 346.942 77.517C350.212 77.5614 353.457 78.095 356.57 79.1004C356.915 79.206 357.131 78.731 356.81 78.6254Z" fill="#C4532C"/>
<path d="M353.307 82.3258C351.137 83.5347 349.153 85.0516 347.415 86.8297C347.176 87.0702 347.585 87.4162 347.818 87.1581C349.53 85.4157 351.482 83.9304 353.616 82.7481C353.891 82.5839 353.581 82.1616 353.307 82.3258Z" fill="#C4532C"/>
<path d="M256.666 116.861L256.292 110.147C256.292 109.807 255.755 109.865 255.772 110.205C256.216 118.142 256.656 126.076 257.092 134.009L257.466 140.73C257.466 141.064 258.003 141.005 257.985 140.671C257.541 132.738 257.102 124.802 256.666 116.861Z" fill="#8E2323"/>
<path d="M319.443 127.922C318.119 123.856 316.657 119.841 315.058 115.876C314.596 114.738 314.129 113.607 313.645 112.481C313.516 112.17 313.032 112.358 313.16 112.668C314.838 116.597 316.379 120.581 317.784 124.62C318.174 125.793 318.563 126.956 318.952 128.109C319.075 128.432 319.559 128.238 319.443 127.922Z" fill="#8E2323"/>
<path d="M317.446 127.728L310.247 118.785C310.037 118.521 309.616 118.826 309.826 119.09L317.025 128.033C317.235 128.291 317.656 127.986 317.446 127.728Z" fill="#8E2323"/>
<path d="M337.805 109.068L333.969 123.259C333.607 124.602 333.239 125.94 332.877 127.282C332.79 127.605 333.309 127.681 333.391 127.365C334.675 122.634 335.956 117.901 337.233 113.167L338.319 109.15C338.406 108.821 337.892 108.774 337.805 109.068Z" fill="#8E2323"/>
<path d="M308.349 172.726L297.712 183.933C297.478 184.179 297.881 184.519 298.114 184.267L308.752 173.06C309.003 172.814 308.595 172.485 308.349 172.726Z" fill="#8E2323"/>
<path d="M301.979 175.118C298.026 179.722 293.986 184.331 289.175 188.055C284.609 191.574 279.308 194.348 273.528 195.093C270.16 195.55 266.732 195.217 263.514 194.119C263.199 194.008 262.983 194.483 263.298 194.594C269.02 196.623 275.349 195.949 280.878 193.627C286.408 191.304 291.061 187.551 295.224 183.37C297.735 180.848 300.07 178.162 302.382 175.47C302.604 175.195 302.201 174.866 301.979 175.118Z" fill="#8E2323"/>
<path d="M256.969 168.181C255.901 171.757 255.055 175.396 254.435 179.077C254.132 180.895 253.883 182.723 253.688 184.56C253.501 186.284 253.326 188.026 253.309 189.768C253.291 191.51 253.513 193.24 254.552 194.641C254.596 194.689 254.656 194.718 254.72 194.724C254.784 194.73 254.848 194.712 254.9 194.674C254.952 194.635 254.988 194.579 255.002 194.516C255.015 194.453 255.005 194.387 254.973 194.33C254.136 193.057 253.727 191.549 253.805 190.026C253.828 188.31 253.945 186.597 254.155 184.894C254.528 181.305 255.113 177.741 255.907 174.221C256.354 172.22 256.874 170.233 257.466 168.263C257.6 167.94 257.086 167.864 256.969 168.181Z" fill="#8E2323"/>
<path d="M298.167 126.092C292.531 130.168 287.389 134.891 282.846 140.167C281.567 141.656 280.335 143.193 279.15 144.758C278.952 145.028 279.355 145.345 279.553 145.093C283.719 139.55 288.52 134.518 293.858 130.103C295.352 128.864 296.89 127.675 298.47 126.538C298.745 126.321 298.423 125.898 298.167 126.092Z" fill="#8E2323"/>
<path d="M295.726 137.17L286.56 143.492C286.279 143.679 286.589 144.078 286.863 143.914L296.036 137.592C296.31 137.404 296.001 136.982 295.726 137.17Z" fill="#8E2323"/>
<path d="M284.067 90.8586C282.315 92.3992 280.669 94.0567 279.139 95.8199C278.923 96.072 279.326 96.4063 279.542 96.1483C281.041 94.4193 282.654 92.7932 284.37 91.2808C284.621 91.058 284.318 90.6357 284.067 90.8586Z" fill="#E2CAB0"/>
<path d="M291.668 92.8818C289.791 91.8625 287.839 90.9881 285.83 90.2663C285.515 90.149 285.299 90.624 285.614 90.7413C287.623 91.4631 289.575 92.3375 291.452 93.3568C291.75 93.5269 291.96 93.0402 291.668 92.8818Z" fill="#E2CAB0"/>
<path d="M291.219 51.2327C289.951 53.8258 287.746 55.8352 285.053 56.8508C282.651 57.7852 279.999 57.8454 277.557 57.0209C275.725 57.7031 273.793 58.0737 271.841 58.1175C270.143 58.1582 268.448 57.9428 266.814 57.4783C265.284 57.0905 263.894 56.2775 262.802 55.1326C260.642 52.7399 260.689 49.3678 261.226 46.3359C259.761 44.5297 258.645 42.266 259.136 39.8851C259.329 38.9019 259.823 38.0039 260.549 37.3165C261.299 36.6641 262.156 36.1481 263.083 35.7917C264.087 35.3964 265.063 34.93 266.002 34.396C267.018 33.7509 267.952 32.9885 268.962 32.3376C270.714 31.2057 272.88 30.4434 274.877 31.4345C275.647 31.8151 276.309 32.3851 276.801 33.0915C277.293 33.798 277.599 34.6179 277.691 35.475C279.293 34.6419 281.056 34.1696 282.858 34.091C284.552 34.0589 286.216 34.5458 287.628 35.4868C292.585 38.8236 293.753 46.0662 291.219 51.2327Z" fill="#36344C"/>
<path d="M292.001 59.3315L292.439 61.7887C292.72 63.3612 292.702 64.973 292.386 66.5389C292.084 68.0246 291.525 69.4457 290.734 70.7378C289.574 72.6184 287.949 74.165 286.016 75.2268C284.084 76.2885 281.911 76.8292 279.709 76.7962C277.506 76.7631 275.35 76.1573 273.45 75.038C271.551 73.9187 269.972 72.324 268.869 70.4094C268.134 69.1391 267.627 67.7499 267.368 66.3043L266.924 63.8412C259.918 65.0962 258.02 56.323 260.636 53.8365L260.846 53.6547C262.674 52.1359 264.379 53.4202 264.986 53.9949C263.964 49.0394 265.663 46.2714 265.663 46.2714C267.791 46.5687 269.947 46.61 272.086 46.3946C274.698 46.1364 277.257 45.484 279.676 44.4593C281.344 43.7254 282.948 42.8504 284.469 41.8438C284.469 41.8438 288.842 45.4856 290.261 49.7314C290.261 49.7314 291.032 47.6027 292.9 47.4678C293.424 47.4373 293.947 47.536 294.424 47.7551C297.799 49.1743 299.007 58.0824 292.001 59.3315Z" fill="#E88846"/>
<path d="M294.237 79.7572L284.411 90.0082L272.337 85.0645L272.261 82.0971L272.051 74.1098C273.457 75.2275 275.084 76.0329 276.823 76.4728C278.562 76.9127 280.374 76.9771 282.14 76.6617C283.905 76.3464 285.584 75.6585 287.066 74.6434C288.547 73.6283 289.798 72.3091 290.734 70.7729L293.368 77.5933L294.237 79.7572Z" fill="#E88846"/>
<path d="M293.391 77.5639L294.237 79.7572L293.385 77.5639H293.391Z" fill="#E88846"/>
<path d="M290.758 70.7436C290.758 70.7436 287.885 84.2318 272.284 82.0678L272.08 74.0863C273.487 75.2038 275.114 76.0088 276.853 76.4483C278.592 76.8877 280.405 76.9516 282.17 76.6357C283.936 76.3198 285.615 75.6313 287.096 74.6156C288.578 73.5999 289.828 72.2802 290.764 70.7436H290.758Z" fill="#C4532C"/>
<path d="M281.754 62.51C280.271 63.0143 278.782 63.4835 277.288 63.9292C277.229 60.4653 277.122 56.9994 276.967 53.5316C276.967 53.168 276.383 53.2384 276.383 53.602C276.546 57.1792 276.655 60.7604 276.71 64.3456C276.71 64.5449 276.943 64.6212 277.101 64.5743C278.724 64.0934 280.341 63.5832 281.941 63.0378C282.309 62.9205 282.075 62.3927 281.754 62.51Z" fill="#C4532C"/>
<path d="M285.462 62.8267C285.571 63.9356 285.379 65.0536 284.907 66.0622C284.436 67.0708 283.701 67.9325 282.782 68.5562C282.478 68.7615 282.823 69.213 283.126 69.0078C284.128 68.3262 284.928 67.3857 285.442 66.2853C285.956 65.185 286.164 63.9658 286.046 62.7563C286.036 62.6785 285.997 62.6077 285.935 62.5593C285.874 62.5109 285.796 62.4889 285.719 62.4983C285.641 62.5076 285.571 62.5474 285.523 62.609C285.474 62.6706 285.452 62.7489 285.462 62.8267Z" fill="#36344C"/>
<path d="M271.385 65.583C272.611 65.583 273.604 64.5852 273.604 63.3545C273.604 62.1237 272.611 61.126 271.385 61.126C270.16 61.126 269.167 62.1237 269.167 63.3545C269.167 64.5852 270.16 65.583 271.385 65.583Z" fill="#C4532C"/>
<path d="M288.557 60.6862C289.782 60.6862 290.775 59.6885 290.775 58.4577C290.775 57.2269 289.782 56.2292 288.557 56.2292C287.331 56.2292 286.338 57.2269 286.338 58.4577C286.338 59.6885 287.331 60.6862 288.557 60.6862Z" fill="#C4532C"/>
<path d="M272.118 59.0164C272.965 58.7751 273.411 57.7282 273.114 56.6782C272.817 55.6281 271.891 54.9725 271.044 55.2139C270.197 55.4552 269.751 56.5021 270.047 57.5521C270.344 58.6022 271.271 59.2578 272.118 59.0164Z" fill="#36344C"/>
<path d="M283.837 56.1231C284.684 55.8818 285.13 54.8349 284.833 53.7848C284.537 52.7348 283.61 52.0792 282.763 52.3206C281.916 52.5619 281.47 53.6088 281.767 54.6588C282.063 55.7089 282.99 56.3644 283.837 56.1231Z" fill="#36344C"/>
<path d="M271.975 52.2473C271.794 52.0124 271.531 51.8552 271.239 51.8074H270.936C270.736 51.8315 270.547 51.9084 270.387 52.0303L268.151 53.3615C267.918 53.5418 267.762 53.8036 267.713 54.0946C267.671 54.3973 267.748 54.7045 267.929 54.9508C268.102 55.1885 268.359 55.3518 268.647 55.4082H268.951C269.15 55.3852 269.34 55.3082 269.499 55.1853L271.736 53.8541C271.972 53.6775 272.13 53.4139 272.173 53.1211C272.225 52.8149 272.154 52.5007 271.975 52.2473Z" fill="#36344C"/>
<path d="M280.008 49.9543C280.041 49.6609 280.183 49.3908 280.406 49.1978L280.662 49.0336C280.845 48.9505 281.046 48.9162 281.246 48.9339L283.85 48.887C284.143 48.9137 284.413 49.0548 284.603 49.2799C284.797 49.5161 284.892 49.8192 284.866 50.1244C284.854 50.2702 284.813 50.4122 284.746 50.5421C284.679 50.672 284.587 50.7872 284.475 50.8809L284.218 51.0451C284.037 51.1332 283.834 51.1678 283.634 51.1448L281.03 51.1975C280.737 51.1681 280.467 51.025 280.277 50.7988C280.081 50.5634 279.985 50.2602 280.008 49.9543Z" fill="#36344C"/>
<path d="M72.4048 207.689L64.4526 275.869H101.756L109.404 225.693L118.063 275.869H156.592L145.382 207.689H72.4048Z" fill="#8CA8E0"/>
<path d="M107.016 225.547L97.2774 222.738C96.968 222.65 96.892 223.148 97.2015 223.236L106.917 226.063C107.244 226.133 107.32 225.635 107.016 225.547Z" fill="#8E2323"/>
<path d="M105.265 227.394L95.806 227.98C95.4849 227.98 95.5374 228.496 95.8586 228.479L105.323 227.892C105.644 227.875 105.586 227.376 105.265 227.394Z" fill="#8E2323"/>
<path d="M89.2493 86.3136C89.2493 86.3136 83.9945 86.3547 81.2387 90.5419C81.2387 90.5419 66.9691 93.7321 64.0206 98.8752C61.0721 104.018 43.1826 133.27 43.1826 133.27L58.5966 163.636C58.5966 163.636 66.0174 161.824 65.2 153.977L70.0928 147.831L73.3566 168.128L70.4373 214.263C70.4373 214.263 80.8125 223.647 87.3693 224.456C93.926 225.265 110.017 214.17 110.017 214.17C110.017 214.17 125.735 224.503 131.579 225.089C137.424 225.676 147.075 213.624 147.075 213.624L141.954 158.892L142.906 127.628L159.348 135.839C159.348 135.839 165.011 145.145 175.112 139.058L171.299 114.134C171.299 114.134 145.703 95.6791 139.724 91.6092C133.745 87.5393 113.923 87.9088 113.923 87.9088C113.923 87.9088 110.543 84.6306 107.022 85.1759L89.2493 86.3136Z" fill="#38A4E1"/>
<path d="M97.9838 110.563C96.1797 107.918 94.3522 105.238 92.0051 103.045C89.9324 101.104 87.3692 99.4675 84.5433 98.9749C83.134 98.6832 81.668 98.8753 80.3804 99.5203C80.0824 97.1344 80.398 94.7116 81.2971 92.483C81.4197 92.1839 80.9643 91.9787 80.8416 92.2778C79.849 94.7141 79.5323 97.375 79.925 99.9777C79.9314 100.021 79.9486 100.061 79.9749 100.096C80.0012 100.131 80.0357 100.158 80.0753 100.175C80.1149 100.193 80.1583 100.2 80.2014 100.196C80.2446 100.193 80.286 100.178 80.322 100.154C82.6866 98.6055 85.8804 99.6083 88.1458 100.852C90.6573 102.331 92.8426 104.308 94.5682 106.663C95.6309 108.03 96.6059 109.46 97.5809 110.891C97.7619 111.12 98.159 110.833 97.9838 110.563Z" fill="#EA8C11"/>
<path d="M115.967 90.3073C115.94 90.2495 115.892 90.2041 115.833 90.1803C115.774 90.1566 115.708 90.1562 115.649 90.1793C115.589 90.2023 115.541 90.2472 115.513 90.3047C115.486 90.3622 115.481 90.4281 115.5 90.4891C116.44 92.7182 117.116 95.0506 117.514 97.4384C112.078 98.0249 107.915 102.13 104.891 106.417C103.945 107.76 103.069 109.15 102.199 110.522C102.03 110.792 102.415 111.108 102.585 110.839C105.451 106.264 108.581 101.391 113.637 99.0336C114.959 98.4025 116.379 98.0057 117.835 97.8607C117.868 97.857 117.9 97.8469 117.929 97.8307C117.958 97.8145 117.984 97.7927 118.005 97.7665C118.025 97.7403 118.041 97.7103 118.05 97.6781C118.059 97.646 118.061 97.6123 118.057 97.5792C117.656 95.0791 116.954 92.6372 115.967 90.3073Z" fill="#EA8C11"/>
<path d="M64.5402 152.886C62.3597 147.87 59.2803 143.298 55.4554 139.398C54.3726 138.285 53.2304 137.232 52.0339 136.243C51.9822 136.211 51.9204 136.199 51.8603 136.209C51.8002 136.219 51.7457 136.25 51.7071 136.298C51.6685 136.345 51.6484 136.405 51.6505 136.466C51.6527 136.527 51.6769 136.586 51.7186 136.63C57.0896 141.035 61.3353 146.665 64.1024 153.051C64.2016 153.344 64.6687 153.186 64.5402 152.886Z" fill="#EA8C11"/>
<path d="M159.231 113.97C159.295 113.654 158.799 113.577 158.735 113.894C157.617 119.122 157.272 124.487 157.713 129.816C157.842 131.341 158.036 132.858 158.297 134.367C158.355 134.683 158.881 134.631 158.799 134.308C157.906 129.042 157.794 123.673 158.466 118.374C158.671 116.897 158.922 115.425 159.231 113.97Z" fill="#EA8C11"/>
<path d="M106.607 175.007C105.673 162.223 104.741 149.434 103.811 136.642C103.285 129.464 102.762 122.286 102.24 115.108C102.24 114.785 101.715 114.838 101.738 115.161L104.541 153.532C105.475 166.32 106.407 179.11 107.337 191.902L108.908 213.437C108.908 213.759 109.428 213.7 109.404 213.378C108.478 200.59 107.546 187.799 106.607 175.007Z" fill="#EA8C11"/>
<path d="M68.0201 127.136L67.2494 121.799C67.2027 121.483 66.7064 121.535 66.7531 121.858C67.66 128.145 68.5689 134.431 69.4797 140.718L70.2504 146.054C70.2971 146.377 70.7934 146.318 70.7467 146.002C69.8359 139.711 68.927 133.422 68.0201 127.136Z" fill="#EA8C11"/>
<path d="M68.6801 144.987L65.6148 133.352C65.5331 133.035 65.066 133.223 65.1477 133.534L68.213 145.169C68.2948 145.48 68.7618 145.298 68.6801 144.987Z" fill="#EA8C11"/>
<path d="M143.56 108.815C143.319 113.343 143.076 117.874 142.83 122.409L142.626 126.274C142.626 126.59 143.105 126.673 143.122 126.35C143.364 121.823 143.607 117.291 143.852 112.756C143.918 111.474 143.986 110.186 144.056 108.892C144.074 108.575 143.578 108.493 143.56 108.815Z" fill="#EA8C11"/>
<path d="M110.105 91.5389L99.6481 112.621L86.7739 93.005L87.1768 88.3897L87.9008 80.1795C89.2097 81.4869 90.7797 82.5009 92.5071 83.1547C94.2345 83.8084 96.0803 84.0872 97.9228 83.9725C99.7652 83.8578 101.563 83.3523 103.196 82.4893C104.83 81.6262 106.264 80.4253 107.402 78.9655L110.105 91.5389Z" fill="#D36D29"/>
<path d="M107.402 78.9831C107.402 78.9831 103.104 90.0024 87.3984 85.9325L87.9005 80.1971C89.2095 81.5045 90.7794 82.5185 92.5069 83.1722C94.2343 83.826 96.0801 84.1047 97.9225 83.9901C99.765 83.8754 101.562 83.3699 103.196 82.5068C104.83 81.6438 106.263 80.4429 107.402 78.9831Z" fill="#AA3617"/>
<path d="M109.253 69.2717L109.404 71.6643C109.593 74.6683 108.665 77.6357 106.8 79.9918C105.273 81.9392 103.193 83.375 100.836 84.1095C98.4785 84.844 95.9548 84.8425 93.5983 84.1052C91.2419 83.3679 89.1637 81.9296 87.6386 79.9805C86.1136 78.0313 85.2135 75.6631 85.0573 73.1891L84.9113 70.7905C78.3429 71.2069 77.3211 63.2137 79.7558 60.821C79.8373 60.742 79.923 60.6676 80.0127 60.5982L80.2288 60.4457C82.1322 59.2025 83.6152 60.6099 84.129 61.2257C84.9191 60.5168 85.4734 59.5813 85.7171 58.5456C85.954 57.5504 85.8889 56.5067 85.5302 55.5489C86.5804 55.4307 87.5459 54.9136 88.2287 54.1034C88.9115 53.2933 89.26 52.2516 89.2027 51.1917C89.9409 51.5715 90.7697 51.738 91.5966 51.6725C92.0367 51.6468 92.4702 51.5518 92.8811 51.3911C93.472 51.1599 94.0083 50.8073 94.4557 50.3559C94.9031 49.9045 95.2517 49.3642 95.4792 48.7697C96.6224 49.6922 98.0517 50.1823 99.5179 50.1544C100.984 50.1265 102.394 49.5825 103.501 48.6172C103.603 49.7056 103.981 50.7496 104.599 51.6491C104.753 51.8867 104.925 52.1122 105.113 52.3235C105.885 53.2404 106.896 53.9228 108.032 54.2939C107.723 55.0828 107.58 55.9279 107.615 56.7751C107.649 57.6223 107.859 58.4531 108.231 59.2142C108.359 59.3549 108.494 59.4957 108.634 59.6364V59.9355C108.692 59.8241 109.65 58.0003 111.389 58.0765C111.889 58.1089 112.374 58.2618 112.802 58.5222C112.99 58.6281 113.162 58.7583 113.316 58.9092C115.874 61.2726 115.675 68.8963 109.253 69.2717Z" fill="#D36D29"/>
<path d="M99.1576 71.1776C97.698 71.4884 96.2383 71.7641 94.7553 72.0397C95.0784 68.7321 95.3528 65.4207 95.5785 62.1054C95.5785 61.7594 95.0647 61.7594 95.0414 62.1054C94.8078 65.5302 94.5217 68.9491 94.1831 72.3622C94.1831 72.5557 94.3758 72.6496 94.5276 72.6261C96.1274 72.3446 97.7155 72.0397 99.3036 71.6937C99.6422 71.6233 99.4963 71.1014 99.1576 71.1776Z" fill="#AA3617"/>
<path d="M89.2029 72.978C90.3766 72.978 91.3281 72.0223 91.3281 70.8433C91.3281 69.6644 90.3766 68.7087 89.2029 68.7087C88.0291 68.7087 87.0776 69.6644 87.0776 70.8433C87.0776 72.0223 88.0291 72.978 89.2029 72.978Z" fill="#AA3617"/>
<path d="M106.071 70.2041C107.244 70.2041 108.196 69.2484 108.196 68.0695C108.196 66.8905 107.244 65.9348 106.071 65.9348C104.897 65.9348 103.945 66.8905 103.945 68.0695C103.945 69.2484 104.897 70.2041 106.071 70.2041Z" fill="#AA3617"/>
<path d="M90.3664 66.77C91.1969 66.6334 91.7342 65.6883 91.5664 64.6591C91.3986 63.6299 90.5893 62.9064 89.7587 63.043C88.9282 63.1796 88.3909 64.1246 88.5587 65.1538C88.7265 66.183 89.5358 66.9066 90.3664 66.77Z" fill="#36344C"/>
<path d="M101.844 65.3023C102.674 65.1657 103.212 64.2207 103.044 63.1915C102.876 62.1623 102.067 61.4387 101.236 61.5753C100.406 61.7119 99.8684 62.657 100.036 63.6862C100.204 64.7154 101.013 65.439 101.844 65.3023Z" fill="#36344C"/>
<path d="M90.966 60.3343C90.8226 60.0912 90.5899 59.9143 90.318 59.8417L90.0319 59.8006C89.8389 59.8032 89.6499 59.8557 89.483 59.9531L87.206 60.9735C86.9609 61.1222 86.7838 61.3617 86.7128 61.6403C86.6418 61.9189 86.6826 62.2144 86.8265 62.4631C86.9702 62.7096 87.2053 62.8889 87.4804 62.9615L87.7665 62.9967C87.9575 62.9989 88.1453 62.9482 88.3095 62.8501L90.569 61.859C90.6917 61.7859 90.7989 61.6892 90.8844 61.5745C90.9699 61.4597 91.0321 61.3292 91.0673 61.1903C91.1025 61.0514 91.1102 60.9069 91.0898 60.7651C91.0694 60.6232 91.0214 60.4868 90.9485 60.3636L90.966 60.3343Z" fill="#36344C"/>
<path d="M98.8656 59.0383C98.892 58.8968 98.9464 58.7621 99.0256 58.6423C99.1049 58.5224 99.2073 58.4197 99.3269 58.3404L99.5896 58.2172C99.7768 58.1496 99.9795 58.1374 100.173 58.1821L102.655 58.4225C102.931 58.4818 103.172 58.6484 103.326 58.8858C103.485 59.1256 103.542 59.4187 103.486 59.701C103.431 59.9833 103.266 60.232 103.029 60.3929L102.766 60.522C102.575 60.5749 102.373 60.5749 102.182 60.522L99.7005 60.2815C99.426 60.2225 99.1852 60.0584 99.0291 59.8241C98.8777 59.5923 98.8193 59.3115 98.8656 59.0383Z" fill="#36344C"/>
<path d="M115.249 55.807C114.891 56.9843 114.252 58.0556 113.386 58.9269C113.232 58.7759 113.06 58.6458 112.872 58.5398C112.444 58.2794 111.959 58.1265 111.459 58.0941C109.708 58.0179 108.762 59.8534 108.704 59.9531V59.654C108.563 59.5133 108.429 59.3725 108.301 59.2318C107.741 58.0849 107.552 56.7915 107.758 55.5314C106.715 55.6772 105.653 55.4709 104.739 54.9449C103.768 54.3897 103.015 53.519 102.602 52.476C102.027 52.8033 101.398 53.0238 100.746 53.1269C99.9941 53.2262 99.2304 53.1736 98.4995 52.9722C97.7685 52.7708 97.085 52.4246 96.4892 51.9541C96.0978 52.3101 95.6621 52.6136 95.193 52.8572C93.8066 53.5399 92.2126 53.6638 90.7382 53.2032C90.4715 53.9555 90.0382 54.6373 89.4712 55.1971C88.4924 56.1542 87.1983 56.7175 85.8337 56.7805C85.9071 57.3678 85.8754 57.9636 85.7403 58.5398C85.4967 59.5754 84.9423 60.5109 84.1522 61.2198C83.6384 60.6334 82.1554 59.1966 80.252 60.4399L80.036 60.5923C79.9463 60.6618 79.8605 60.7362 79.7791 60.8152C79.4394 60.5323 79.1739 60.17 79.006 59.7601C78.8382 59.3502 78.773 58.9051 78.8162 58.464C78.8594 58.0229 79.0097 57.5992 79.254 57.23C79.4982 56.8608 79.8289 56.5574 80.217 56.3465C79.787 55.9337 79.4759 55.412 79.3166 54.8364C79.1572 54.2609 79.1554 53.6528 79.3115 53.0763C79.4675 52.4998 79.7756 51.9763 80.2032 51.561C80.6307 51.1457 81.162 50.854 81.7409 50.7167C81.2792 50.124 81.0235 49.3958 81.0131 48.6433C81.0026 47.8909 81.2379 47.1557 81.683 46.5504C82.1281 45.945 82.7583 45.5028 83.4774 45.2915C84.1964 45.0801 84.9646 45.1112 85.6644 45.3801C85.4421 44.6135 85.4859 43.7937 85.7887 43.0555C86.0915 42.3172 86.6353 41.7044 87.3308 41.3176C88.0262 40.9308 88.832 40.7931 89.6156 40.9271C90.3993 41.0611 91.1143 41.4588 91.6431 42.0549C91.7509 41.2412 92.109 40.4816 92.6673 39.8822C93.2257 39.2828 93.9564 38.8734 94.7576 38.7113C95.5588 38.5492 96.3904 38.6424 97.1362 38.978C97.8821 39.3135 98.505 39.8746 98.9181 40.583C99.2294 39.9267 99.7331 39.3817 100.362 39.021C100.99 38.6604 101.713 38.5013 102.434 38.5651C103.155 38.6289 103.84 38.9125 104.396 39.378C104.952 39.8435 105.353 40.4686 105.545 41.1694C106.654 40.2428 108.464 40.583 109.468 41.5858C110.456 42.6745 111.004 44.0946 111.004 45.5677C111.522 45.3641 112.089 45.3259 112.63 45.4581C113.17 45.5903 113.656 45.8866 114.023 46.3066C114.378 46.7339 114.641 47.2312 114.793 47.7665C114.946 48.3017 114.986 48.8632 114.91 49.4148C114.751 50.5204 114.353 51.5774 113.742 52.5112C114.986 52.91 115.541 54.5051 115.249 55.807Z" fill="#36344C"/>
<path d="M103.799 76.2503C103.333 76.8748 102.706 77.3591 101.986 77.6507C101.265 77.9422 100.479 78.0299 99.712 77.9041C98.3691 77.693 96.4132 76.5142 96.9212 74.8663C97.0668 74.5092 97.2946 74.1918 97.5859 73.94C97.8771 73.6883 98.2235 73.5093 98.5968 73.4178C99.2658 73.2066 99.9831 73.2066 100.652 73.4178C100.824 72.7857 101.193 72.2251 101.703 71.8168C102.021 71.5699 102.414 71.4404 102.816 71.45C103.218 71.4596 103.604 71.6078 103.91 71.8696C105.165 73.0014 104.669 75.0716 103.799 76.2503Z" fill="#F4E9DC"/>
<path d="M24.0087 119.166C24.0087 119.166 34.9503 173.359 47.1121 170.626C59.274 167.894 60.43 161.83 58.3923 156.827C56.3546 151.825 36.2698 113.706 36.2698 113.706C36.2698 113.706 36.2698 106.165 34.2321 99.9191C32.1945 93.6735 33.0119 85.5219 32.1244 84.5309C31.2369 83.5398 27.506 82.1851 28.0374 95.9606C28.0374 95.9606 12.6293 78.1504 10.2705 80.6427C7.91165 83.1351 18.9641 95.5853 18.9641 95.5853C18.9641 95.5853 4.15742 83.5574 2.72112 85.6568C1.28482 87.7563 14.0364 98.8048 14.0364 98.8048C14.0364 98.8048 3.45095 90.0434 1.90371 91.6972C0.356481 93.3509 12.7752 103.426 12.7752 103.426C12.7752 103.426 0.105421 101.802 0.0703891 104.012C0.0353574 106.223 12.0279 107.73 12.0279 107.73C12.0279 107.73 17.271 116.574 24.0087 119.166Z" fill="#D36D29"/>
<path d="M22.7127 95.2862C21.8544 95.8023 21.0195 96.3594 20.2021 96.9341C20.1912 96.9025 20.1754 96.8729 20.1554 96.8461L18.7541 95.1924C18.7166 95.14 18.6601 95.1045 18.5967 95.0935C18.5334 95.0825 18.4683 95.097 18.4155 95.1337C18.3638 95.1734 18.3295 95.2316 18.3197 95.2961C18.3099 95.3606 18.3254 95.4264 18.3629 95.4797L19.7875 97.1159C19.805 97.1431 19.8291 97.1653 19.8576 97.1804C18.4334 98.1994 17.0796 99.3142 15.8056 100.517C15.0271 99.6532 14.235 98.7951 13.4293 97.9428C13.3908 97.8916 13.3344 97.857 13.2715 97.8462C13.2086 97.8353 13.1439 97.8488 13.0907 97.8841C13.0645 97.9033 13.0423 97.9275 13.0255 97.9553C13.0086 97.9831 12.9974 98.014 12.9926 98.0461C12.9877 98.0783 12.9892 98.1111 12.997 98.1427C13.0048 98.1743 13.0188 98.204 13.0381 98.2301L15.4261 100.816C15.4261 100.816 15.4261 100.816 15.4611 100.816C15.0641 101.203 14.6671 101.596 14.2934 101.989C14.0774 102.218 14.4569 102.529 14.6729 102.3C17.1374 99.6959 19.9515 97.4497 23.0338 95.6263C23.2732 95.5091 22.9871 95.1103 22.7127 95.2862Z" fill="#AA3617"/>
<path d="M25.6961 101.796C24.9024 104.197 24.4695 106.703 24.4116 109.232C24.4116 109.543 24.8904 109.484 24.9021 109.173C24.9554 106.733 25.3746 104.315 26.1457 102.001C26.2449 101.702 25.7954 101.497 25.6961 101.796Z" fill="#AA3617"/>
<path d="M33.578 115.923C31.6338 116.563 29.7307 117.323 27.8795 118.198C27.5992 118.333 27.7744 118.785 28.0605 118.656C29.9121 117.787 31.8152 117.033 33.759 116.398C34.0568 116.281 33.8758 115.812 33.578 115.923Z" fill="#AA3617"/>
<path d="M180.367 82.8361C180.367 82.8361 187.542 137.657 175.153 139.041C162.763 140.425 159.721 135.094 160.025 129.658C160.329 124.221 167.031 81.6515 167.031 81.6515C167.031 81.6515 164.597 74.5203 164.503 67.9463C164.41 61.3723 161 53.9304 161.52 52.6988C162.039 51.4673 165.134 48.9808 169.075 62.1816C169.075 62.1816 177.885 40.3073 180.921 41.8966C183.958 43.4858 177.529 58.8682 177.529 58.8682C177.529 58.8682 187.671 42.6707 189.679 44.2072C191.688 45.7436 183.228 60.3226 183.228 60.3226C183.228 60.3226 190.409 48.5937 192.406 49.6552C194.403 50.7167 185.908 64.2693 185.908 64.2693C185.908 64.2693 197.369 58.6043 198.122 60.7096C198.875 62.815 188.015 68.1281 188.015 68.1281C188.015 68.1281 185.913 78.1797 180.367 82.8361Z" fill="#D36D29"/>
<path d="M173.874 59.8065C174.861 60.0059 175.824 60.2639 176.793 60.5396C176.785 60.5089 176.785 60.4764 176.793 60.4457L177.611 58.4284C177.631 58.3672 177.674 58.3162 177.73 58.2856C177.787 58.2551 177.852 58.2474 177.914 58.2642C177.946 58.2735 177.975 58.2891 178 58.3098C178.025 58.3306 178.046 58.3562 178.061 58.3851C178.076 58.4141 178.086 58.4458 178.088 58.4784C178.091 58.511 178.088 58.5438 178.078 58.575L177.26 60.5923C177.248 60.6197 177.233 60.6454 177.214 60.6686C178.889 61.1711 180.529 61.7842 182.124 62.5041C182.591 61.4368 183.064 60.3636 183.537 59.2963C183.557 59.2352 183.6 59.1841 183.656 59.1536C183.713 59.123 183.779 59.1154 183.841 59.1321C183.902 59.1511 183.954 59.1937 183.985 59.2508C184.015 59.3079 184.022 59.3748 184.004 59.4371L182.579 62.6625C182.582 62.676 182.582 62.69 182.579 62.7035C183.082 62.9381 183.578 63.1844 184.074 63.4424C184.354 63.5891 184.074 64.0289 183.817 63.8588C180.644 62.201 177.256 60.995 173.751 60.2757C173.424 60.2112 173.57 59.742 173.874 59.8065Z" fill="#AA3617"/>
<path d="M173.168 66.9494C174.699 68.9665 175.917 71.2047 176.782 73.5879C176.893 73.8811 176.414 73.9867 176.303 73.6934C175.46 71.4022 174.279 69.2513 172.8 67.3129C172.619 67.0373 172.975 66.703 173.168 66.9494Z" fill="#AA3617"/>
<path d="M170.278 82.883C172.323 82.8544 174.369 82.9523 176.402 83.1762C176.718 83.2114 176.7 83.6981 176.402 83.6688C174.368 83.4461 172.323 83.3462 170.278 83.3697C169.974 83.3756 169.974 82.883 170.278 82.883Z" fill="#AA3617"/>
<path d="M222.2 73.8987C221.219 75.0423 219.943 75.892 218.512 76.3545C217.082 76.817 215.552 76.8743 214.091 76.5201C211.054 75.7108 208.748 73.3943 205.981 72.0162C204.521 71.2831 202.933 70.6967 201.789 69.471C201.644 69.323 201.513 69.162 201.397 68.9902C201.259 68.8246 201.134 68.6481 201.024 68.4624C199.383 65.5595 201.065 61.9118 202.851 59.4957C203.801 58.1801 205.002 57.0664 206.383 56.2189C207.763 55.3714 209.298 54.8069 210.897 54.5579C212.418 54.3863 213.957 54.5254 215.423 54.9668C216.889 55.4082 218.251 56.1428 219.427 57.1265C221.924 59.115 223.662 61.9067 224.349 65.0317C224.688 66.5764 224.671 68.1785 224.298 69.7154C223.926 71.2523 223.208 72.6832 222.2 73.8987Z" fill="#663A12"/>
<path d="M226.673 83.9738C226.673 94.9109 219.421 101.444 210.19 101.444C200.959 101.444 193.258 94.9109 193.258 83.9738C193.258 73.0366 200.743 66.5506 209.968 66.5506C219.193 66.5506 226.673 73.0366 226.673 83.9738Z" fill="#663A12"/>
<path d="M145.271 49.7901C144.973 52.1359 144.261 54.4171 143.817 56.7394C143.233 59.959 143.105 63.2548 142.533 66.4802C141.99 69.5649 140.939 72.6789 138.831 74.9777C138.86 75.7694 138.878 76.5553 138.907 77.3235L126.815 74.3151L127.078 70.5677C125.367 66.8673 124.742 62.7446 123.475 58.8389C122.033 54.3702 119.768 50.1771 118.664 45.6088C118.575 45.3248 118.545 45.0252 118.577 44.7291C118.595 44.5807 118.654 44.4402 118.746 44.3232C118.839 44.2062 118.962 44.1173 119.102 44.0664C119.558 43.9491 119.961 44.3772 120.229 44.7643C121.881 47.1162 123.336 49.6014 124.579 52.1945C123.437 48.1605 122.611 44.0428 122.109 39.8792C121.963 39.0088 121.946 38.1217 122.057 37.2461C122.115 36.8942 122.267 36.4955 122.605 36.4075C122.771 36.393 122.938 36.4234 123.088 36.4956C123.238 36.5678 123.365 36.6792 123.458 36.818C123.998 37.5198 124.405 38.3148 124.661 39.1638C126.185 43.3392 127.457 47.6261 128.695 51.8895L128.794 51.8602C127.767 46.5177 126.728 41.1459 126.535 35.7096C126.508 35.396 126.537 35.0801 126.622 34.7772C126.669 34.6287 126.756 34.4957 126.872 34.3924C126.988 34.2892 127.13 34.2195 127.282 34.1907C127.691 34.138 128.041 34.484 128.286 34.8182C129.101 36.0496 129.694 37.4153 130.038 38.8529C130.949 41.9552 131.626 45.1103 132.239 48.2829C132.017 44.9519 131.819 41.621 131.725 38.2782C131.638 37.1858 131.741 36.0864 132.029 35.0294C132.175 34.5895 132.514 34.1028 132.969 34.1731C133.319 34.2259 133.553 34.5837 133.676 34.9121C135.532 38.9878 135.842 43.5679 136.542 47.9956C137.01 50.9535 137.668 53.8781 138.51 56.7511C139.316 53.8666 140.624 51.1483 142.375 48.7228C142.621 48.3568 142.932 48.0389 143.292 47.7845C143.475 47.6559 143.686 47.5738 143.908 47.5452C144.13 47.5166 144.355 47.5424 144.565 47.6203C145.312 47.9369 145.376 48.9573 145.271 49.7901Z" fill="#F99958"/>
<path d="M134.405 48.2712C133.821 48.5175 133.238 48.7873 132.654 49.0805C132.589 48.623 132.531 48.1656 132.467 47.7141C132.458 47.6456 132.424 47.5832 132.37 47.5395C132.317 47.4959 132.249 47.4744 132.181 47.4795C132.112 47.4883 132.049 47.524 132.007 47.579C131.964 47.6339 131.945 47.7035 131.953 47.7727L132.146 49.2271C132.152 49.2582 132.164 49.288 132.181 49.315C130.119 50.3898 128.205 51.7304 126.488 53.3029C126.243 53.5316 126.546 53.9538 126.792 53.7251C129.086 51.6223 131.73 49.941 134.604 48.7579C134.902 48.6348 134.715 48.1422 134.405 48.2712Z" fill="#D36D29"/>
<path d="M124.853 51.8896C124.833 51.862 124.808 51.8388 124.779 51.8212C124.749 51.8036 124.717 51.792 124.683 51.7871C124.65 51.7822 124.615 51.7841 124.582 51.7926C124.549 51.8011 124.519 51.8161 124.491 51.8368C124.436 51.8778 124.4 51.9387 124.389 52.0066C124.378 52.0746 124.394 52.1441 124.433 52.2004C124.444 52.225 124.458 52.2486 124.474 52.2707C124.499 52.3139 124.52 52.359 124.538 52.4056C124.579 52.4925 124.612 52.5828 124.637 52.6754C124.655 52.7165 124.667 52.7599 124.672 52.8044V52.8513C124.676 52.8707 124.676 52.8906 124.672 52.91C124.672 53.0097 124.702 53.1094 124.713 53.2149C124.717 53.2489 124.727 53.2818 124.744 53.3117C124.76 53.3417 124.782 53.3681 124.809 53.3893C124.835 53.4106 124.866 53.4264 124.899 53.4357C124.931 53.445 124.966 53.4477 124.999 53.4436C125.067 53.4348 125.129 53.3999 125.171 53.3463C125.214 53.2926 125.234 53.2245 125.227 53.1563C125.202 52.7107 125.074 52.277 124.853 51.8896Z" fill="#D36D29"/>
<path d="M135.608 62.5804C133.89 60.204 131.704 58.2078 129.186 56.7159C128.9 56.5459 128.684 57.0209 128.97 57.191C131.399 58.6408 133.507 60.5747 135.164 62.8736C135.38 63.1609 135.801 62.856 135.608 62.5804Z" fill="#D36D29"/>
<path d="M262.353 252.693C262.353 253.279 262.353 253.866 262.318 254.487C262.359 254.999 262.232 255.51 261.956 255.942C261.833 256.105 261.665 256.229 261.473 256.295C261.28 256.362 261.072 256.37 260.876 256.317C260.698 256.246 260.537 256.137 260.404 255.998C260.272 255.86 260.17 255.695 260.105 255.514C259.897 254.991 259.722 254.457 259.579 253.913C259.404 253.326 259.235 252.74 259.077 252.153C258.92 251.567 258.803 251.08 258.674 250.541C258.604 251.637 258.517 252.74 258.359 253.831C258.15 255.341 257.757 256.82 257.191 258.235C256.975 258.745 256.701 259.378 256.117 259.543C255.885 259.607 255.637 259.583 255.421 259.475C255.205 259.366 255.037 259.182 254.949 258.956C254.733 258.407 254.655 257.813 254.722 257.226C254.722 256.358 254.751 255.467 254.768 254.616C254.768 253.96 254.768 253.297 254.768 252.634C254.681 253.016 254.587 253.391 254.482 253.76C254.175 254.918 253.797 256.056 253.35 257.168C253.023 257.971 252.182 258.985 251.23 258.44C251.056 258.328 250.91 258.178 250.801 258.001C250.692 257.825 250.623 257.626 250.6 257.42C250.511 256.826 250.478 256.225 250.5 255.625C250.504 254.841 250.549 254.058 250.635 253.279C250.331 253.807 250.01 254.329 249.66 254.833C249.433 255.241 249.097 255.576 248.69 255.801C248.517 255.87 248.326 255.876 248.149 255.818C247.972 255.76 247.821 255.642 247.721 255.484C247.574 255.204 247.524 254.882 247.581 254.57C247.65 254.09 247.745 253.614 247.867 253.145C248.089 252.077 248.311 251.016 248.539 249.948L249.222 246.688C249.487 245.652 249.682 244.6 249.806 243.539C249.856 242.577 249.745 241.614 249.479 240.689C249.122 240.102 248.778 239.469 248.474 238.829C247.079 235.839 246.483 232.32 247.639 229.153C248.373 227.101 249.875 225.418 251.826 224.462C251.957 224.366 252.093 224.278 252.234 224.198C253.065 223.718 254.025 223.513 254.979 223.611C255.917 223.745 256.782 224.196 257.431 224.89C258.955 226.456 259.334 228.696 259.766 230.754C260.268 233.176 260.724 235.604 261.109 238.05C261.922 242.888 262.338 247.786 262.353 252.693Z" fill="#F99958"/>
<path d="M254.634 241.122C254.517 243.603 254.424 246.16 253.682 248.547C253.536 249.034 253.233 249.767 252.608 249.72C252.083 249.673 251.925 248.975 251.826 248.547C251.592 247.301 251.44 246.042 251.37 244.776C251.287 243.52 250.943 242.295 250.36 241.181C250.197 240.888 249.776 241.181 249.94 241.486C250.529 242.677 250.855 243.981 250.897 245.31C251.014 246.606 251.02 248.013 251.481 249.245C251.543 249.464 251.655 249.665 251.81 249.831C251.964 249.997 252.156 250.124 252.369 250.201C252.622 250.255 252.885 250.233 253.126 250.138C253.367 250.043 253.575 249.879 253.723 249.667C254.051 249.151 254.274 248.575 254.377 247.972C254.544 247.291 254.677 246.602 254.774 245.908C254.996 244.354 255.066 242.782 255.142 241.216C255.16 240.876 254.634 240.788 254.634 241.122Z" fill="#D36D29"/>
<path d="M251.131 250.324C250.979 251.268 250.821 252.212 250.669 253.156C250.67 253.219 250.693 253.28 250.734 253.328C250.775 253.375 250.832 253.407 250.894 253.416C250.956 253.425 251.019 253.412 251.072 253.378C251.125 253.344 251.165 253.293 251.183 253.232C251.335 252.294 251.493 251.35 251.645 250.406C251.646 250.342 251.624 250.28 251.583 250.232C251.542 250.183 251.486 250.151 251.423 250.141C251.361 250.131 251.297 250.144 251.243 250.177C251.189 250.211 251.149 250.263 251.131 250.324Z" fill="#D36D29"/>
<path d="M254.815 248.107L254.57 252.541C254.57 252.869 255.066 252.957 255.084 252.623L255.329 248.189C255.352 247.855 254.838 247.761 254.815 248.107Z" fill="#D36D29"/>
<path d="M258.394 244.008C258.33 243.685 257.81 243.738 257.875 244.066C258.334 246.315 258.571 248.603 258.581 250.898C258.581 251.233 259.101 251.174 259.101 250.84C259.087 248.545 258.851 246.257 258.394 244.008Z" fill="#D36D29"/>
<path d="M205.677 195.058L169.933 193.298C169.933 193.298 157.491 192.712 156.043 275.857H189.615L200.008 229.347L205.677 275.857H236.213C236.213 275.857 243.739 202.312 225.791 194.753L205.677 195.058Z" fill="#36344C"/>
<path d="M228.903 197.82C192.873 208.376 174.207 195.638 174.207 195.638L179.462 165.26L183.987 121.506L221.465 123.265L225.809 173.113C225.47 173.142 228.903 197.82 228.903 197.82Z" fill="#F4E9DC"/>
<path d="M213.921 151.673C213.881 153.682 213.723 155.687 213.449 157.678C213.197 159.672 212.941 161.666 212.619 163.648C212.036 167.477 211.183 171.459 209.344 174.902C208.632 176.233 207.592 177.582 206.057 177.916C204.352 178.274 202.816 177.148 201.666 176.033C200.177 174.573 198.782 173.001 197.346 171.477C196.049 170.099 194.695 168.75 193.527 167.243C192.416 165.89 191.634 164.296 191.244 162.586C190.948 160.754 191.191 158.874 191.945 157.179C192.701 155.441 193.665 153.803 194.817 152.3C195.883 150.825 197.039 149.419 198.28 148.089C198.724 147.62 199.179 147.169 199.646 146.723C200.423 145.896 201.24 145.093 202.098 144.342C203.433 143.115 204.898 142.037 206.466 141.128C207.227 140.66 208.114 140.437 209.005 140.489C209.748 140.579 210.443 140.904 210.99 141.416C212.234 142.542 212.853 144.207 213.268 145.791C213.742 147.714 213.961 149.692 213.921 151.673Z" fill="#73A2FF"/>
<path d="M216.952 168.802C217.682 173.922 211.936 176.25 207.925 174.08C203.663 169.811 202.052 152.165 212.182 156.194C216.683 158.516 217.232 164.258 216.952 168.802Z" fill="#8CA8E0"/>
<path d="M195.425 152.095C193.62 153.066 191.594 153.549 189.547 153.498C187.501 153.446 185.502 152.862 183.747 151.802C182.801 151.226 181.942 150.517 181.196 149.696C180.968 149.45 180.548 149.755 180.776 150.001C182.607 152.029 185.06 153.384 187.746 153.851C190.432 154.319 193.196 153.872 195.6 152.582C195.903 152.423 195.722 151.936 195.425 152.095Z" fill="#E2CAB0"/>
<path d="M225.079 153.883C222.584 155.36 219.691 156.016 216.806 155.757C213.921 155.498 211.189 154.338 208.994 152.441C208.737 152.224 208.41 152.628 208.661 152.845C210.433 154.363 212.543 155.429 214.813 155.953C217.082 156.478 219.444 156.446 221.698 155.86C222.993 155.518 224.233 154.994 225.383 154.306C225.675 154.136 225.365 153.713 225.079 153.883Z" fill="#E2CAB0"/>
<path d="M221.301 95.0692L221.167 97.3622C221.116 98.2205 220.969 99.0702 220.729 99.8956C219.967 102.526 218.315 104.807 216.058 106.346C213.758 107.926 210.972 108.628 208.202 108.325C205.432 108.021 202.861 106.733 200.954 104.693C199.861 103.525 199.015 102.146 198.469 100.64C197.923 99.1338 197.688 97.5317 197.778 95.9313L197.918 93.65C191.39 93.2571 191.56 84.9883 194.415 83.3345C196.639 82.0561 197.994 83.962 198.332 84.5367C199.908 84.4718 201.473 84.2459 203.003 83.8623C206.582 83.0783 209.898 81.3749 212.625 78.9186C213.135 78.4467 213.611 77.9392 214.05 77.3997C214.757 76.5425 215.375 75.615 215.895 74.6317C217.343 75.7581 218.582 77.1318 219.556 78.6899C220.226 79.7369 220.76 80.8663 221.144 82.0502C221.574 83.3468 221.806 84.7011 221.833 86.0674C222.002 85.8269 223.684 83.5281 225.967 85.2229C226.305 85.482 226.58 85.8149 226.772 86.1964C226.906 86.4458 227.018 86.7069 227.105 86.9763C228.109 90.1079 226.556 95.38 221.301 95.0692Z" fill="#F99958"/>
<path d="M231.18 118.509C230.646 119.725 229.972 120.875 229.172 121.934C219.322 135.487 199.471 136.402 188.103 124.11C185.324 121.101 182.988 118.245 181.803 116.134C186.935 115.079 199.448 112.616 199.448 112.616L199.675 111.407L200.423 107.443L200.948 104.693C202.855 106.733 205.426 108.021 208.196 108.325C210.966 108.628 213.752 107.926 216.053 106.346L216.257 109.478L216.525 113.249C217.407 113.384 231.18 118.457 231.18 118.509Z" fill="#F99958"/>
<path d="M210.763 96.0544C209.396 96.0544 208.03 95.9958 206.675 95.9313C207.629 93.0538 208.538 90.1587 209.402 87.2461C209.49 86.9353 209.005 86.8297 208.918 87.1347C208.022 90.1412 207.082 93.134 206.097 96.1131C206.045 96.2832 206.208 96.4122 206.354 96.418C207.837 96.4884 209.315 96.5353 210.798 96.5529C211.107 96.5529 211.078 96.0603 210.763 96.0544Z" fill="#D36D29"/>
<path d="M201.952 95.6967C203.026 95.6967 203.896 94.8224 203.896 93.7439C203.896 92.6653 203.026 91.791 201.952 91.791C200.878 91.791 200.008 92.6653 200.008 93.7439C200.008 94.8224 200.878 95.6967 201.952 95.6967Z" fill="#D36D29"/>
<path d="M217.547 96.6291C218.621 96.6291 219.492 95.7548 219.492 94.6763C219.492 93.5978 218.621 92.7234 217.547 92.7234C216.474 92.7234 215.603 93.5978 215.603 94.6763C215.603 95.7548 216.474 96.6291 217.547 96.6291Z" fill="#D36D29"/>
<path d="M205.284 88.7134C205.341 87.7596 204.763 86.9492 203.993 86.9033C203.224 86.8574 202.555 87.5934 202.498 88.5472C202.442 89.5009 203.02 90.3113 203.789 90.3572C204.558 90.4031 205.228 89.6672 205.284 88.7134Z" fill="#36344C"/>
<path d="M215.809 89.7184C215.865 88.7646 215.288 87.9542 214.518 87.9083C213.749 87.8624 213.079 88.5984 213.023 89.5521C212.967 90.5059 213.545 91.3163 214.314 91.3622C215.083 91.4081 215.753 90.6722 215.809 89.7184Z" fill="#36344C"/>
<path d="M205.625 84.7303C205.548 84.4791 205.376 84.2683 205.146 84.1438L204.901 84.05C204.73 84.006 204.551 84.006 204.381 84.05L202.145 84.5015C201.894 84.5803 201.684 84.7552 201.561 84.9883C201.441 85.2263 201.418 85.5018 201.497 85.7565C201.575 86.0068 201.746 86.217 201.975 86.343L202.227 86.4309C202.396 86.4806 202.577 86.4806 202.746 86.4309L204.977 85.9794C205.101 85.9401 205.215 85.8765 205.315 85.7923C205.414 85.708 205.496 85.6048 205.555 85.4885C205.614 85.3723 205.65 85.2454 205.66 85.1153C205.67 84.9851 205.654 84.8542 205.613 84.7303H205.625Z" fill="#36344C"/>
<path d="M212.929 85.1701C213.038 84.9365 213.233 84.7539 213.472 84.6599L213.729 84.5954C213.905 84.577 214.083 84.6074 214.243 84.6833L216.409 85.3988C216.642 85.5071 216.825 85.7028 216.917 85.9442C217.016 86.1926 217.016 86.4699 216.917 86.7183C216.807 86.9519 216.613 87.1345 216.374 87.2285L216.111 87.293C215.937 87.3078 215.762 87.2775 215.603 87.205L213.414 86.4896C213.297 86.4367 213.193 86.3614 213.105 86.2678C213.018 86.1742 212.95 86.0642 212.906 85.9442C212.811 85.6932 212.82 85.4149 212.929 85.1701Z" fill="#36344C"/>
<path d="M216.058 106.382C216.058 106.382 213.513 113.689 199.681 111.437L200.434 107.467L200.954 104.716C202.86 106.758 205.43 108.049 208.2 108.354C210.97 108.66 213.757 107.96 216.058 106.382Z" fill="#D36D29"/>
<path d="M214.348 97.4091C213.856 98.102 213.21 98.6697 212.46 99.0668C211.711 99.464 210.88 99.6795 210.033 99.6963C209.7 99.6963 209.758 100.224 210.091 100.218C211.007 100.196 211.905 99.9604 212.716 99.5311C213.526 99.1017 214.226 98.4899 214.762 97.7434C214.931 97.4678 214.523 97.1394 214.348 97.4091Z" fill="#36344C"/>
<path d="M200.008 109.719L199.453 112.651L194.333 113.665L176.63 231.247C155.471 229.722 146.497 217.002 146.497 217.002L154.887 148.113C154.887 148.113 122.232 123.547 118.904 112.692C115.576 101.837 124.211 71.2421 124.211 71.2421L126.815 71.8931L138.907 74.9015L140.559 75.312V100.406L184.839 111.707C189.608 109.621 194.866 108.932 200.008 109.719Z" fill="#2DABB3"/>
<path d="M216.263 109.507C218.402 109.552 220.505 110.064 222.428 111.006C224.351 111.949 226.046 113.301 227.397 114.967C227.397 114.967 240.551 117.899 243.015 126.596C245.479 135.293 258.779 222.82 258.779 222.82C258.779 222.82 257.477 231.904 246.769 232.994L240.697 223.834L240.989 228.051C240.989 228.051 233.031 236.114 223.479 234.859L216.531 113.255L216.263 109.507Z" fill="#6BB2AB"/>
<path d="M185.155 137.563C184.677 132.403 184.459 127.222 184.501 122.04C184.524 119.096 184.635 116.15 184.833 113.202C184.833 112.868 184.337 112.786 184.314 113.12C183.975 118.316 183.893 123.518 184.069 128.725C184.249 133.946 184.694 139.155 185.4 144.33C185.789 147.235 186.268 150.124 186.836 152.998C186.9 153.326 187.42 153.268 187.356 152.939C186.363 147.855 185.628 142.722 185.155 137.563Z" fill="#389688"/>
<path d="M227.776 116.064C227.316 120.776 226.619 125.462 225.686 130.103C224.746 134.761 223.567 139.367 222.154 143.902C221.36 146.459 220.484 148.987 219.544 151.491C219.427 151.802 219.9 152.019 220.017 151.702C221.694 147.244 223.142 142.703 224.355 138.096C225.569 133.5 226.544 128.843 227.274 124.145C227.691 121.483 228.029 118.808 228.29 116.122C228.319 115.812 227.805 115.73 227.776 116.064Z" fill="#389688"/>
<path d="M153.626 129.704C153.451 128.141 153.289 126.561 153.141 124.966C153.134 124.898 153.099 124.835 153.046 124.792C152.992 124.749 152.923 124.73 152.855 124.737C152.787 124.745 152.725 124.78 152.682 124.834C152.64 124.887 152.62 124.956 152.628 125.025C153.149 130.619 153.842 136.194 154.706 141.75C154.951 143.316 155.214 144.882 155.483 146.441C155.541 146.77 156.067 146.711 156.002 146.383C155.029 140.859 154.237 135.299 153.626 129.704Z" fill="#389688"/>
<path d="M153.655 142.677C152.184 138.376 150.711 134.075 149.236 129.775C149.125 129.458 148.652 129.646 148.751 129.962L153.171 142.864C153.282 143.187 153.766 142.993 153.655 142.677Z" fill="#389688"/>
<path d="M238.905 194.858C238.348 186.124 237.698 177.402 236.955 168.691C236.534 163.753 236.085 158.821 235.606 153.895C235.592 153.831 235.556 153.775 235.503 153.736C235.45 153.698 235.385 153.681 235.32 153.688C235.255 153.695 235.195 153.727 235.152 153.776C235.109 153.825 235.086 153.888 235.086 153.954C235.939 162.704 236.698 171.461 237.364 180.226C238.029 188.992 238.599 197.72 239.074 206.411C239.343 211.353 239.582 216.3 239.792 221.254C239.792 221.588 240.324 221.529 240.312 221.195C239.938 212.41 239.469 203.631 238.905 194.858Z" fill="#389688"/>
<path d="M175.533 195.773C171.717 204.059 165.479 210.981 157.649 215.618C157.357 215.794 157.649 216.205 157.953 216.046C165.858 211.356 172.154 204.361 176.006 195.99C176.023 195.929 176.018 195.864 175.992 195.806C175.966 195.749 175.92 195.703 175.862 195.676C175.805 195.65 175.74 195.645 175.68 195.663C175.619 195.681 175.567 195.72 175.533 195.773Z" fill="#389688"/>
<path d="M236.336 221.846C230.974 215.507 227.375 207.858 225.902 199.673C225.844 199.344 225.318 199.397 225.388 199.731C226.547 206.159 229.001 212.282 232.599 217.723C233.617 219.262 234.724 220.738 235.915 222.145C236.125 222.409 236.534 222.104 236.336 221.846Z" fill="#389688"/>
<path d="M181.967 132.584C177.944 139.419 175.113 146.894 173.594 154.687C173.402 155.684 174.949 155.924 175.141 154.933C176.638 147.281 179.427 139.943 183.386 133.235C183.899 132.367 182.475 131.728 181.967 132.584Z" fill="#F4E9DC"/>
<path d="M227.309 138.794C227.029 137.827 225.558 138.396 225.855 139.381C227.936 146.556 228.589 154.073 227.776 161.501C227.665 162.498 229.207 162.75 229.318 161.748C230.159 154.038 229.476 146.238 227.309 138.794Z" fill="#F4E9DC"/>
<path d="M185.254 152.857C184.156 162.866 182.988 172.867 181.751 182.86C180.513 192.852 179.182 202.781 177.757 212.645C176.978 218.204 176.163 223.76 175.311 229.312C175.31 229.375 175.331 229.437 175.372 229.486C175.413 229.534 175.469 229.567 175.532 229.577C175.594 229.587 175.658 229.574 175.712 229.54C175.766 229.506 175.806 229.454 175.824 229.394C177.331 219.44 178.757 209.47 180.104 199.485C181.451 189.5 182.71 179.562 183.882 169.67C184.543 164.095 185.18 158.514 185.791 152.928C185.803 152.605 185.289 152.523 185.254 152.857Z" fill="#F4E9DC"/>
<path d="M222.989 201.385C222.311 190.935 221.877 180.473 221.687 169.999C221.582 164.099 221.55 158.198 221.593 152.294C221.593 151.96 221.079 152.019 221.074 152.353C221 162.827 221.161 173.297 221.558 183.763C221.955 194.229 222.599 204.681 223.491 215.12C223.993 220.984 224.577 226.848 225.242 232.713C225.256 232.777 225.293 232.834 225.346 232.872C225.399 232.91 225.464 232.927 225.529 232.92C225.593 232.913 225.653 232.881 225.696 232.832C225.739 232.783 225.763 232.72 225.762 232.654C224.59 222.263 223.666 211.84 222.989 201.385Z" fill="#F4E9DC"/>
</svg>
