<svg width="215" height="62" viewBox="0 0 215 62" fill="none" xmlns="http://www.w3.org/2000/svg">
<path fill-rule="evenodd" clip-rule="evenodd" d="M73.6551 18.6396C70.8801 15.4245 66.9793 13.817 61.9525 13.817C57.9476 13.817 54.643 14.8449 52.0387 16.9007C51.1267 17.6206 49.5261 17.0332 49.5261 15.8717C49.5261 15.2031 48.9837 14.661 48.3146 14.661H39.3805C38.5873 14.661 37.9442 15.3036 37.9442 16.0963V46.2001C37.9442 46.9928 37.3012 47.6354 36.508 47.6354H14.294C13.5009 47.6354 12.8578 46.9928 12.8578 46.2001V41.3546C12.8578 40.5619 13.5009 39.9193 14.294 39.9193H30.1817C30.975 39.9193 31.618 39.2767 31.618 38.484V32.4328C31.618 31.6401 30.975 30.9975 30.1817 30.9975H14.294C13.5009 30.9975 12.8578 30.3549 12.8578 29.5622V25.3195C12.8578 24.5268 13.5009 23.8842 14.294 23.8842H33.4334C34.2266 23.8842 34.8696 23.2416 34.8696 22.4489V16.0963C34.8696 15.3036 34.2266 14.661 33.4334 14.661H2.47091C1.67769 14.661 1.03467 15.3036 1.03467 16.0963V55.4233C1.03467 56.216 1.67769 56.8586 2.47091 56.8586H37.9442H39.2444H48.4518C49.245 56.8586 49.888 56.216 49.888 55.4233V33.2279C49.888 30.0531 50.6521 27.682 52.1803 26.1146C53.7084 24.5071 55.7192 23.7033 58.2125 23.7033C60.6254 23.7033 62.4954 24.4468 63.8224 25.9338C65.1898 27.4207 65.8734 29.6512 65.8734 32.6251V55.4233C65.8734 56.216 66.5165 56.8586 67.3096 56.8586H77.7936C77.8066 56.8586 77.8173 56.8481 77.8173 56.8352V56.8102C77.8173 56.7891 77.8468 56.7838 77.854 56.8036C77.8575 56.8135 77.8683 56.8184 77.8784 56.8148L87.662 53.1627C88.1238 52.9902 88.6408 53.0697 89.0437 53.3543C89.82 53.9026 90.6408 54.4076 91.5054 54.8693C95.0845 56.7581 99.106 57.7026 103.57 57.7026C108.034 57.7026 112.035 56.7581 115.574 54.8693C119.153 52.9805 121.948 50.3682 123.959 47.0326C126.01 43.697 127.035 39.9394 127.035 35.7598C127.035 32.944 126.57 30.3198 125.639 27.8871C125.341 27.109 125.695 26.2132 126.472 25.912L127.716 25.4299C128.657 25.0651 129.671 25.7592 129.671 26.7681V55.4233C129.671 56.216 130.315 56.8586 131.108 56.8586H155.327H156.018H165.654C166.446 56.8586 167.09 56.216 167.09 55.4233V48.9501C167.09 48.1574 167.733 47.5149 168.526 47.5149H182.122C182.914 47.5149 183.558 48.1574 183.558 48.9501V55.4233C183.558 56.216 184.2 56.8586 184.994 56.8586H194.065C194.858 56.8586 195.502 56.216 195.502 55.4233V34.0719C195.502 29.8119 194.657 26.1749 192.968 23.1608C191.319 20.1065 188.967 17.7957 185.91 16.2283C182.894 14.6208 179.396 13.817 175.414 13.817C171.433 13.817 167.914 14.6208 164.858 16.2283C161.842 17.7957 159.489 20.1065 157.8 23.1608C156.151 26.1749 155.327 29.8119 155.327 34.0719V45.959C155.327 46.7517 154.684 47.3943 153.891 47.3943H143.051C142.259 47.3943 141.615 46.7517 141.615 45.959V16.0963C141.615 15.3036 140.972 14.661 140.179 14.661H129.801C129.792 14.661 129.784 14.6554 129.781 14.647C129.776 14.6357 129.764 14.6301 129.753 14.6345L129.686 14.6603C129.685 14.6608 129.684 14.661 129.682 14.661H129.674C129.673 14.661 129.671 14.6623 129.671 14.6638C129.671 14.6651 129.671 14.6661 129.67 14.6666L119.707 18.5275C119.235 18.7103 118.704 18.6286 118.293 18.3326C117.444 17.7194 116.538 17.1587 115.574 16.6503C112.035 14.7614 108.034 13.817 103.57 13.817C99.106 13.817 95.0845 14.7614 91.5054 16.6503C87.9665 18.5391 85.1716 21.1514 83.1207 24.487C81.1099 27.8226 80.1045 31.5802 80.1045 35.7598C80.1045 38.6471 80.5842 41.333 81.5444 43.8175C81.8474 44.6031 81.4848 45.5095 80.6956 45.8042L79.7563 46.1548C78.8177 46.5053 77.8173 45.8117 77.8173 44.8103V32.2634C77.8173 26.3557 76.4299 21.8145 73.6551 18.6396ZM103.57 47.8163C105.701 47.8163 107.632 47.3139 109.361 46.3092C111.09 45.3045 112.457 43.8979 113.463 42.0894C114.468 40.2408 114.971 38.1309 114.971 35.7598C114.971 33.3887 114.468 31.2989 113.463 29.4904C112.457 27.6418 111.09 26.2151 109.361 25.2104C107.632 24.2057 105.701 23.7033 103.57 23.7033C101.438 23.7033 99.5082 24.2057 97.7789 25.2104C96.0497 26.2151 94.6824 27.6418 93.677 29.4904C92.6717 31.2989 92.169 33.3887 92.169 35.7598C92.169 38.1309 92.6717 40.2408 93.677 42.0894C94.6824 43.8979 96.0497 45.3045 97.7789 46.3092C99.5082 47.3139 101.438 47.8163 103.57 47.8163ZM182.122 38.2917C182.914 38.2917 183.558 37.6491 183.558 36.8564V33.0471C183.558 29.9526 182.814 27.6217 181.326 26.0543C179.838 24.487 177.847 23.7033 175.354 23.7033C172.82 23.7033 170.81 24.487 169.322 26.0543C167.834 27.6217 167.09 29.9526 167.09 33.0471V36.8564C167.09 37.6491 167.733 38.2917 168.526 38.2917H182.122Z" fill="white"/>
<path fill-rule="evenodd" clip-rule="evenodd" d="M73.6553 18.6396C70.8802 15.4245 66.9793 13.817 61.9525 13.817C57.9476 13.817 54.643 14.8449 52.0387 16.9007C51.1266 17.6206 49.5261 17.0332 49.5261 15.8717C49.5261 15.2031 48.9837 14.661 48.3146 14.661H39.3805C38.5873 14.661 37.9443 15.3036 37.9443 16.0963V46.2001C37.9443 46.9928 37.3013 47.6354 36.508 47.6354H14.2941C13.5008 47.6354 12.8578 46.9928 12.8578 46.2001V41.3546C12.8578 40.5619 13.5008 39.9193 14.2941 39.9193H30.1818C30.975 39.9193 31.618 39.2767 31.618 38.484V32.4328C31.618 31.6401 30.975 30.9975 30.1818 30.9975H14.2941C13.5008 30.9975 12.8578 30.3549 12.8578 29.5622V25.3195C12.8578 24.5268 13.5008 23.8842 14.2941 23.8842H33.4334C34.2266 23.8842 34.8696 23.2416 34.8696 22.4489V16.0963C34.8696 15.3036 34.2266 14.661 33.4334 14.661H2.47091C1.6777 14.661 1.03467 15.3036 1.03467 16.0963V55.4233C1.03467 56.216 1.6777 56.8586 2.47091 56.8586H48.4518C49.2451 56.8586 49.8881 56.216 49.8881 55.4233V33.2279C49.8881 30.0531 50.6521 27.682 52.1803 26.1146C53.7085 24.5071 55.7192 23.7033 58.2125 23.7033C60.6254 23.7033 62.4954 24.4468 63.8225 25.9338C65.1898 27.4207 65.8734 29.6512 65.8734 32.6251V55.4233C65.8734 56.216 66.5164 56.8586 67.3097 56.8586H77.7938C77.8067 56.8586 77.8175 56.8481 77.8175 56.8352V56.8102C77.8175 56.7891 77.8469 56.7838 77.8541 56.8036C77.8577 56.8135 77.8685 56.8184 77.8785 56.8148L87.6615 53.1627C88.124 52.9902 88.6403 53.0697 89.0432 53.3543C89.8195 53.9026 90.6403 54.4076 91.5056 54.8693C95.0847 56.7581 99.1062 57.7026 103.57 57.7026C108.034 57.7026 112.035 56.7581 115.574 54.8693C119.153 52.9805 121.948 50.3682 123.959 47.0326C126.01 43.697 127.035 39.9394 127.035 35.7598C127.035 32.944 126.57 30.3198 125.639 27.8871C125.341 27.109 125.695 26.2132 126.472 25.912L127.716 25.4299C128.658 25.0651 129.672 25.7592 129.672 26.7681V55.4233C129.672 56.216 130.315 56.8586 131.108 56.8586H165.654C166.447 56.8586 167.09 56.216 167.09 55.4233V48.9501C167.09 48.1574 167.733 47.5149 168.526 47.5149H182.122C182.914 47.5149 183.558 48.1574 183.558 48.9501V55.4233C183.558 56.216 184.201 56.8586 184.994 56.8586H194.065C194.858 56.8586 195.502 56.216 195.502 55.4233V34.0719C195.502 29.8119 194.657 26.1749 192.968 23.1608C191.319 20.1065 188.967 17.7957 185.91 16.2283C182.894 14.6208 179.396 13.817 175.414 13.817C171.433 13.817 167.914 14.6208 164.858 16.2283C161.842 17.7957 159.489 20.1065 157.8 23.1608C156.152 26.1749 155.327 29.8119 155.327 34.0719V45.959C155.327 46.7517 154.684 47.3943 153.891 47.3943H143.052C142.259 47.3943 141.615 46.7517 141.615 45.959V16.0963C141.615 15.3036 140.973 14.661 140.179 14.661H129.802C129.792 14.661 129.784 14.6554 129.781 14.647C129.776 14.6357 129.763 14.6301 129.753 14.6345L129.686 14.6603L129.682 14.661H129.674C129.673 14.661 129.672 14.6623 129.672 14.6638L129.67 14.6666L119.707 18.5275C119.235 18.7103 118.704 18.6286 118.294 18.3326C117.444 17.7194 116.537 17.1587 115.574 16.6503C112.035 14.7614 108.034 13.817 103.57 13.817C99.1062 13.817 95.0847 14.7614 91.5056 16.6503C87.9667 18.5391 85.1718 21.1514 83.1208 24.487C81.1101 27.8226 80.1047 31.5802 80.1047 35.7598C80.1047 38.6471 80.5844 41.333 81.5438 43.8175C81.8476 44.6031 81.4849 45.5095 80.6957 45.8042L79.7557 46.1548C78.8171 46.5053 77.8175 45.8117 77.8175 44.8103V32.2634C77.8175 26.3557 76.4301 21.8145 73.6553 18.6396ZM103.57 47.8163C105.701 47.8163 107.632 47.3139 109.361 46.3092C111.09 45.3045 112.457 43.8979 113.463 42.0894C114.468 40.2408 114.971 38.1309 114.971 35.7598C114.971 33.3887 114.468 31.2989 113.463 29.4904C112.457 27.6418 111.09 26.2151 109.361 25.2104C107.632 24.2057 105.701 23.7033 103.57 23.7033C101.439 23.7033 99.5083 24.2057 97.7791 25.2104C96.0499 26.2151 94.6826 27.6418 93.6772 29.4904C92.6718 31.2989 92.1692 33.3887 92.1692 35.7598C92.1692 38.1309 92.6718 40.2408 93.6772 42.0894C94.6826 43.8979 96.0499 45.3045 97.7791 46.3092C99.5083 47.3139 101.439 47.8163 103.57 47.8163ZM182.122 38.2917C182.914 38.2917 183.558 37.6491 183.558 36.8564V33.0471C183.558 29.9526 182.814 27.6217 181.326 26.0543C179.838 24.487 177.847 23.7033 175.354 23.7033C172.821 23.7033 170.81 24.487 169.322 26.0543C167.834 27.6217 167.09 29.9526 167.09 33.0471V36.8564C167.09 37.6491 167.733 38.2917 168.526 38.2917H182.122Z" fill="white"/>
<path d="M203.712 12.1808C203.515 11.979 203.249 11.8656 202.972 11.8656C202.694 11.8656 202.427 11.979 202.231 12.1808L201.491 12.9408C201.298 13.1464 201.066 13.3104 200.811 13.4232C200.555 13.5361 200.28 13.5955 200.002 13.598C199.724 13.6004 199.448 13.546 199.191 13.4377C198.934 13.3294 198.699 13.1696 198.503 12.9675C198.307 12.7653 198.151 12.525 198.045 12.2604C197.94 11.9958 197.887 11.7122 197.889 11.4264C197.892 11.1406 197.95 10.858 198.06 10.5954C198.169 10.3327 198.329 10.0951 198.529 9.89651L204.425 3.83384C205.821 3.50748 207.282 3.64179 208.599 4.21768C209.916 4.79357 211.023 5.78171 211.763 7.0416C212.502 8.30147 212.837 9.76898 212.719 11.2355C212.6 12.7019 212.035 14.0927 211.104 15.21L208.896 17.5082L203.712 12.1797V12.1808ZM192.234 5.70905C193.318 4.5953 194.735 3.88979 196.257 3.70656C197.779 3.52333 199.317 3.8731 200.621 4.69932L197.047 8.37438C196.273 9.16853 195.832 10.2424 195.818 11.3665C195.803 12.4906 196.218 13.5758 196.972 14.3903C197.726 15.2047 198.759 15.6838 199.852 15.7251C200.945 15.7664 202.011 15.3668 202.821 14.6115L202.972 14.464L207.415 19.0304L202.972 23.5978C202.579 24.0014 202.046 24.2282 201.491 24.2282C200.935 24.2282 200.403 24.0014 200.01 23.5978L192.233 15.604C190.957 14.2918 190.239 12.5121 190.239 10.6565C190.239 8.80088 190.957 7.02124 192.233 5.70905H192.234Z" fill="#FDB32C"/>
</svg>
